<svg width="260" height="212" xmlns="http://www.w3.org/2000/svg" data-name="Layer 1">

 <g>
  <title>Layer 1</title>
  <g id="svg_1">
   <path id="svg_2" fill-rule="evenodd" fill="#231f60" d="m124.66877,186.9c-3.04,-1.01 -6.07,-1.27 -8.86,0c-3.21,1.52 -6.24,3.46 -9.28,5.23c-4.98,2.95 -9.7,6.58 -14.93,8.86c-14.93,6.41 -29.61,1.94 -40.15,-8.27l-0.42,-0.42c3.29,1.01 6.66,2.36 10.21,3.12c7.59,1.6 14.93,0.67 22.01,-2.45c7.42,-3.29 14.76,-6.75 22.69,-8.6c7.76,-1.86 15.44,-1.94 23.11,0.51c0.84,0.25 1.77,0.25 2.61,0.08c2.78,-0.59 5.57,-1.6 8.43,-1.86c9.7,-0.84 18.98,1.18 27.83,5.15c5.65,2.53 11.56,4.89 17.54,6.33c8.1,1.94 16.03,0.59 23.36,-3.46c0.17,-0.08 0.42,-0.17 1.18,-0.51c-0.59,0.76 -0.93,1.18 -1.27,1.52c-11.47,10.8 -24.54,13.92 -39.47,8.35c-6.24,-2.28 -11.56,-6.07 -16.87,-9.87c-2.78,-2.02 -5.65,-4.05 -9.28,-4.22c-2.28,-0.08 -4.55,0.08 -6.83,0.51c10.46,5.48 19.99,11.98 28.59,20.41c-1.77,1.6 -3.37,3.04 -5.15,4.55c-3.21,-3.21 -6.24,-6.41 -9.36,-9.36c-5.31,-4.98 -11.05,-9.45 -17.46,-12.99c-1.6,-0.93 -3.04,-1.01 -4.64,-0.17c-2.28,1.35 -4.72,2.53 -6.83,4.05c-3.71,2.7 -7.42,5.48 -10.8,8.52s-6.33,6.49 -9.62,9.95c-1.52,-1.27 -3.21,-2.61 -5.15,-4.22c8.52,-8.52 18.05,-15.44 28.76,-20.75l0.05,0.01z" class="cls-2"/>
   <path id="svg_3" fill-rule="evenodd" fill="#231f60" d="m194.66877,175.94c6.75,-6.07 9.7,-14.17 12.4,-22.35c0.93,-2.78 1.94,-5.65 2.87,-8.43c2.45,-7.25 7.09,-13.33 11.64,-19.4c0.17,-0.17 0.34,-0.34 0.93,-0.84c-3.21,8.01 -3.29,16.19 -4.89,24.04c-1.52,7.25 -5.31,13.16 -10.46,18.3c-0.59,0.67 -1.43,1.1 -2.11,1.69c0.17,0.25 0.34,0.42 0.51,0.67c0.76,-0.51 1.69,-0.93 2.36,-1.6c5.9,-5.74 12.99,-9.36 20.24,-12.9c2.02,-1.01 4.05,-2.11 6.16,-3.21c6.83,-3.63 12.65,-8.27 16.7,-15.69l0,1.27c0,0.25 -0.08,0.51 -0.17,0.67c-2.19,8.52 -7.17,15.27 -13.5,21.17c-7.68,7.09 -16.45,11.72 -26.91,13.33c-5.23,0.93 -10.37,2.19 -15.77,3.29l0,-0.01z" class="cls-2"/>
   <path id="svg_4" fill-rule="evenodd" fill="#231f60" d="m65.36877,176.69c-7.51,-1.43 -15.35,-2.28 -22.69,-4.47c-16.45,-4.89 -27.58,-15.69 -33.32,-31.97c-0.25,-0.59 -0.34,-1.27 -0.34,-1.94c4.72,8.86 12.82,13.41 21.42,17.46c7.25,3.46 14.51,7 20.58,12.4c1.18,1.01 2.7,1.77 4.3,2.28c-0.25,-0.25 -0.42,-0.59 -0.76,-0.84c-7.93,-6.49 -11.72,-15.1 -13.16,-25.05c-0.84,-5.99 -2.19,-11.81 -3.63,-17.8c0.34,0.42 0.76,0.84 1.1,1.27c7.17,8.35 11.72,18.13 14.84,28.59c1.52,5.15 3.63,10.12 6.92,14.51c1.52,1.94 3.21,3.71 4.72,5.57l0.02,-0.01z" class="cls-2"/>
   <path id="svg_5" fill-rule="evenodd" fill="#231f60" d="m40.06877,155.95c-2.7,-1.69 -5.57,-3.54 -8.43,-5.4c-6.92,-4.47 -13.83,-8.94 -19.65,-14.84c-8.77,-8.86 -12.65,-19.57 -11.72,-32.39c0.51,1.52 0.76,2.7 1.18,3.88c1.94,5.4 5.48,9.62 9.36,13.66c1.86,1.94 3.71,3.8 5.65,5.65c4.13,4.05 7.59,8.6 10.71,13.5c1.01,1.6 2.28,3.04 3.37,4.55c0.17,-0.08 0.34,-0.17 0.42,-0.34c-0.76,-1.27 -1.52,-2.53 -2.19,-3.88c-3.46,-7.17 -3.88,-14.59 -2.45,-22.35c1.1,-5.65 2.02,-11.39 3.04,-17.12c0.84,3.04 2.02,6.24 2.53,9.53c1.01,6.49 1.6,13.07 2.45,19.65c0.51,4.47 0.76,8.94 1.77,13.33c0.84,4.39 2.53,8.43 3.96,12.57z" class="cls-2"/>
   <path id="svg_6" fill-rule="evenodd" fill="#231f60" d="m177.79877,182.01c1.18,-0.17 2.36,-0.34 3.54,-0.42c9.02,-1.1 18.13,-2.19 27.16,-3.29c7.34,-0.93 14.42,-2.53 20.33,-7.51c0.76,-0.67 1.52,-1.35 2.28,-2.02c0.17,0.08 0.34,0.25 0.42,0.34c-1.94,2.45 -3.63,5.06 -5.82,7.17c-10.96,10.88 -24.04,14.84 -39.22,11.81c-7.25,-1.43 -14.42,-3.12 -21.59,-4.72c-1.01,-0.25 -2.11,-0.34 -3.12,-0.76c1.01,-0.25 2.11,-0.59 3.12,-0.84c7.84,-1.94 14.17,-6.16 19.74,-11.98c5.31,-5.48 11.13,-10.37 16.78,-15.52c0.76,-0.67 1.6,-1.18 2.7,-1.6c-3.21,6.16 -6.24,12.48 -9.78,18.47c-2.87,4.81 -7.59,7.51 -12.9,9.19c-1.18,0.34 -2.36,0.76 -3.54,1.18c-0.17,0.08 -0.17,0.25 -0.08,0.51l-0.02,-0.01z" class="cls-2"/>
   <path id="svg_7" fill-rule="evenodd" fill="#231f60" d="m219.71877,155.02c3.88,-7.42 5.06,-15.35 5.82,-23.45c0.76,-8.43 0.84,-16.95 2.95,-25.22c0.59,-2.45 1.52,-4.81 2.28,-7.09c1.18,7.76 2.45,15.44 3.46,23.28c0.84,6.75 -0.93,13.07 -4.3,18.98c-0.25,0.51 -0.51,1.01 -0.76,1.52c0.17,0.17 0.34,0.34 0.51,0.51c0.25,-0.42 0.42,-0.84 0.67,-1.18c1.18,-1.77 2.45,-3.46 3.63,-5.23c3.71,-5.65 7.93,-10.8 12.82,-15.44c2.61,-2.53 4.98,-5.4 7.25,-8.35c2.7,-3.46 4.55,-7.34 5.57,-11.72c0.59,3.54 0.42,7 -0.25,10.37c-2.28,11.89 -8.94,21.09 -18.3,28.34c-5.99,4.55 -12.4,8.43 -18.56,12.65c-0.93,0.67 -1.86,1.35 -2.78,2.02l-0.01,0.01z" class="cls-2"/>
   <path id="svg_8" fill-rule="evenodd" fill="#231f60" d="m98.93877,183.36c-10.04,2.11 -19.74,4.72 -29.69,6.07c-15.77,2.11 -28.51,-3.88 -38.38,-16.28c-0.59,-0.67 -1.01,-1.52 -1.77,-2.61c0.59,0.17 0.76,0.25 0.93,0.34c5.57,5.06 12.4,7.25 19.65,8.01c7,0.76 14,1.18 21,1.86c3.04,0.34 6.07,1.01 9.11,1.52c1.01,0.17 2.02,0.25 3.04,0.34c0.08,-0.17 0.08,-0.34 0.17,-0.51c-0.67,-0.25 -1.27,-0.67 -1.94,-0.76c-8.1,-1.52 -13.58,-6.33 -17.29,-13.41c-2.53,-4.72 -4.98,-9.53 -7.68,-14.68c0.93,0.67 1.6,1.01 2.19,1.6c6.07,5.4 12.4,10.71 18.22,16.36c5.82,5.74 12.65,9.45 20.58,11.3c0.51,0.08 1.01,0.25 1.6,0.42c0,0.08 0,0.17 0.25,0.42l0.01,0.01z" class="cls-2"/>
   <path id="svg_9" fill-rule="evenodd" fill="#231f60" d="m238.52877,124.32c0.08,-1.52 0.17,-2.61 0.25,-3.71c0.34,-4.72 0,-9.28 -1.52,-13.75c-3.71,-10.88 -6.75,-21.93 -7.76,-33.49c-0.08,-0.51 -0.08,-1.1 -0.08,-1.6c0,-0.67 0.08,-1.27 0.08,-1.43c3.54,6.24 7.42,12.82 11.05,19.48c3.46,6.41 4.13,13.16 2.45,20.24c-0.17,0.84 -0.34,1.69 -0.51,2.53c0.17,0.08 0.34,0.08 0.51,0.17c0.25,-0.59 0.51,-1.1 0.67,-1.69c0.59,-2.36 1.1,-4.72 1.6,-7.09c1.27,-5.99 3.21,-11.64 5.82,-17.12c3.37,-7.34 6.16,-14.84 5.31,-23.2c0.17,0 0.42,0 0.59,-0.08c0.76,3.12 1.69,6.24 2.11,9.45c1.35,10.29 -0.08,20.16 -4.55,29.52c-1.1,2.36 -2.7,4.55 -4.3,6.66c-3.71,4.89 -7.59,9.78 -11.72,15.1l0,0.01z" class="cls-2"/>
   <path id="svg_10" fill-rule="evenodd" fill="#231f60" d="m3.11877,65.02c-0.93,7.51 1.52,14 4.3,20.58c2.36,5.48 4.47,11.05 6.41,16.7c1.1,3.29 1.6,6.83 2.45,10.21c0.17,0.67 0.51,1.27 1.18,1.77c-0.34,-1.6 -0.76,-3.21 -1.1,-4.89c-1.1,-6.58 0.42,-12.74 3.21,-18.64c1.52,-3.21 3.46,-6.24 5.15,-9.36c1.86,-3.46 3.63,-6.92 5.57,-10.71c-0.42,3.96 -0.67,7.59 -1.1,11.3c-1.1,9.62 -4.13,18.72 -6.92,28c-1.43,4.81 -1.6,9.62 -1.01,14.51c0.08,0.51 0.08,0.93 0.08,1.43c-0.17,0 -0.34,0.08 -0.42,0c-3.46,-4.47 -6.66,-9.19 -10.37,-13.5c-6.41,-7.34 -9.03,-16.11 -10.21,-25.56c-0.84,-6.75 -0.08,-13.41 1.86,-19.91c0.17,-0.51 0.25,-0.93 0.42,-1.35c0.17,-0.25 0.34,-0.34 0.51,-0.59l-0.01,0.01z" class="cls-2"/>
   <path id="svg_11" fill-rule="evenodd" fill="#231f60" d="m244.93877,77.08c-0.17,-2.19 -0.42,-3.8 -0.51,-5.4c-0.76,-8.6 -0.34,-17.12 0.67,-25.73c0.67,-5.65 0,-11.22 -2.11,-16.62c0.84,1.18 1.69,2.36 2.53,3.54c8.77,12.9 9.95,26.57 4.64,41.08c-1.86,5.06 -3.12,10.29 -4.64,15.44c-0.08,0.25 -0.08,0.51 -0.25,1.27c-0.67,-2.11 -1.1,-3.88 -1.69,-5.48c-2.11,-5.57 -5.65,-10.29 -9.19,-14.93c-4.72,-6.24 -9.36,-12.48 -11.47,-20.16c-0.51,-1.77 -1.01,-3.54 -1.35,-5.48c3.46,4.98 8.18,8.52 12.65,12.48c5.4,4.81 8.94,10.54 9.87,17.8c0.08,0.51 0.17,0.93 0.34,1.43c-0.08,0.08 0.08,0.17 0.51,0.76z" class="cls-2"/>
   <path id="svg_12" fill-rule="evenodd" fill="#231f60" d="m15.09877,91.34c-2.45,-6.92 -5.06,-13.83 -7.25,-20.83c-4.39,-13.58 -1.18,-28.42 8.18,-39.31c-2.11,4.47 -2.7,9.19 -2.36,14c0.25,2.87 0.42,5.82 0.93,8.69c1.35,7.59 0.84,15.18 0.17,22.77c-0.08,0.59 0,1.18 0,1.86c0.17,0 0.34,0 0.42,0.08c0.17,-0.51 0.42,-1.1 0.42,-1.6c0.59,-7.17 4.22,-12.74 9.03,-17.71c2.11,-2.11 4.3,-4.05 6.41,-6.16s4.22,-4.3 6.07,-6.24c0,3.04 -2.53,10.88 -5.31,15.1c-3.63,5.57 -7.42,10.88 -11.05,16.36c-2.53,3.88 -4.55,8.01 -5.65,12.48c-0.08,0.25 -0.17,0.51 -0.34,0.76c0.08,-0.08 0.17,-0.17 0.34,-0.25l-0.01,0z" class="cls-2"/>
   <path id="svg_13" fill-rule="evenodd" fill="#231f60" d="m210.18877,21.16c3.04,5.31 7.93,8.52 12.74,11.72c3.8,2.53 7.34,5.31 10.12,8.94c0.84,1.1 1.52,2.28 2.28,3.46c0.51,0.93 1.01,1.86 1.52,2.95c0.17,-0.25 0.34,-0.34 0.25,-0.42c-2.19,-7.42 -4.47,-14.76 -6.49,-22.27c-1.43,-5.31 -3.54,-10.04 -7.84,-13.58c0.08,-0.17 0.17,-0.25 0.25,-0.42c1.77,0.84 3.63,1.6 5.23,2.7c7.76,5.4 12.15,12.74 12.48,22.18c0.17,3.21 -0.08,6.41 -0.17,9.62l0,12.31c-1.69,-2.02 -3.29,-4.39 -5.31,-6.16c-4.05,-3.71 -8.35,-7.17 -12.65,-10.54c-6.33,-4.98 -10.8,-11.05 -12.4,-18.98c-0.08,-0.34 -0.17,-0.67 -0.17,-1.1c-0.08,0 0,-0.08 0.17,-0.42l-0.01,0.01z" class="cls-2"/>
   <path id="svg_14" fill-rule="evenodd" fill="#231f60" d="m18.55877,60.38c0,-8.69 -0.59,-17.38 0.17,-26.06c0.84,-9.7 6.66,-16.36 15.44,-20.41c0.34,-0.17 0.76,-0.25 1.27,-0.34c-4.98,4.22 -6.58,10.04 -8.01,16.03c-1.35,5.74 -3.04,11.3 -4.64,16.95c-0.25,1.01 -0.59,1.94 -0.59,3.12c0.25,-0.34 0.51,-0.67 0.67,-1.01c2.36,-4.98 5.82,-9.03 10.29,-12.23c2.02,-1.43 4.05,-2.87 5.99,-4.39c3.71,-2.7 7.17,-5.74 9.28,-10.04c0.17,0.08 0.42,0.17 0.59,0.25c-0.76,2.53 -1.35,5.15 -2.36,7.59c-2.87,6.75 -7.93,11.81 -13.66,16.19c-5.48,4.13 -10.63,8.52 -14.42,14.34l-0.02,0.01z" class="cls-2"/>
   <path id="svg_15" fill-rule="evenodd" fill="#231f60" d="m228.49877,32.89c-6.07,-4.39 -11.3,-9.28 -15.94,-14.84c-2.7,-3.29 -5.15,-6.92 -7.76,-10.29c-1.18,-1.6 -2.61,-2.95 -4.05,-4.39c-1.1,-1.1 -2.19,-2.02 -3.71,-3.37c5.65,0.42 17.04,6.49 21.26,11.05c5.65,6.16 8.1,13.75 10.21,21.85l-0.01,-0.01z" class="cls-2"/>
   <path id="svg_16" fill-rule="evenodd" fill="#231f60" d="m30.19877,34.23c5.31,-21.85 11.81,-26.4 30.2,-32.73c-0.84,0.76 -1.77,1.52 -2.53,2.36c-3.04,3.8 -6.33,7.51 -9.03,11.56c-3.8,5.57 -8.18,10.46 -13.5,14.51c-1.69,1.35 -3.29,2.7 -5.15,4.3l0.01,0z" class="cls-2"/>
  </g>
  <path id="svg_17" fill="#231f60" d="m110.22877,161.2c5.9,3.14 12.29,5.8 19.01,7.9l0,0s0.06,0.02 0.09,0.03c0.2,0.06 0.41,0.09 0.61,0.09l0.02,0c0.2,0 0.41,-0.03 0.61,-0.09c0.03,-0.01 0.06,-0.02 0.09,-0.03l0,0c6.72,-2.1 13.11,-4.75 19.01,-7.9c26.93,-14.37 43.67,-42.56 43.67,-73.57l0,-40.53c0,-1.37 -1.02,-2.47 -2.28,-2.47c-12.2,0 -22.14,-9.6 -22.14,-21.39c0,-1.37 -1.02,-2.47 -2.28,-2.47l-73.4,0c-1.26,0 -2.28,1.11 -2.28,2.47c0,11.79 -9.93,21.39 -22.14,21.39c-1.26,0 -2.28,1.11 -2.28,2.47l0,40.54c0,31.01 16.73,59.2 43.67,73.57l0,0l0.02,-0.01zm-39.11,-111.72c12.83,-1.08 23.1,-11.14 24.29,-23.77l69.09,0c1.2,12.63 11.47,22.69 24.29,23.77l0,38.16c0,29.11 -15.75,55.6 -41.12,69.13c-5.5,2.93 -11.46,5.41 -17.72,7.41c-6.26,-1.99 -12.23,-4.47 -17.72,-7.41c-25.36,-13.53 -41.12,-40.02 -41.12,-69.13l0,-38.16l0.01,0z" class="cls-1"/>
  <path id="svg_18" fill="#231f60" d="m150.60877,101.03l7.95,-34.46c-1.21,-0.17 -2.42,-0.45 -3.63,-0.82c-1.21,-0.37 -2.47,-0.82 -3.8,-1.33l0,0l0,-2.51l19.35,0l0,2.51c-1.96,0.86 -4.03,1.58 -6.22,2.15l0,0l-14.42,55.79l-5.36,1.03l-13.9,-46.97l-13.64,45.94l-5.27,1.03l-15.28,-56.82c-1.15,-0.29 -2.28,-0.6 -3.37,-0.95c-1.09,-0.34 -2.16,-0.74 -3.2,-1.2l0,0l0,-2.51l22.46,0l0,2.51c-1.1,0.4 -2.22,0.79 -3.37,1.16c-1.15,0.37 -2.39,0.7 -3.72,0.99l0,0l8.55,34.8l1.9,11.23l0.18,0l3.02,-11.4l11.66,-39.29l2.93,0l12.52,39.29l2.51,11.23l0.17,0l1.98,-11.4z" class="cls-1"/>
 </g>
</svg>